<svg width="56" height="56" viewBox="0 0 56 56" fill="none" xmlns="http://www.w3.org/2000/svg">
<rect width="56" height="56" rx="10" fill="#025595"/>
<path d="M27.5 37.75C21.85 37.75 17.25 33.15 17.25 27.5C17.25 21.85 21.85 17.25 27.5 17.25C33.15 17.25 37.75 21.85 37.75 27.5C37.75 33.15 33.15 37.75 27.5 37.75ZM27.5 18.75C22.67 18.75 18.75 22.68 18.75 27.5C18.75 32.32 22.67 36.25 27.5 36.25C32.33 36.25 36.25 32.32 36.25 27.5C36.25 22.68 32.33 18.75 27.5 18.75Z" fill="white"/>
<path d="M37.9995 38.75C37.8095 38.75 37.6195 38.68 37.4695 38.53L35.4695 36.53C35.1795 36.24 35.1795 35.76 35.4695 35.47C35.7595 35.18 36.2395 35.18 36.5295 35.47L38.5295 37.47C38.8195 37.76 38.8195 38.24 38.5295 38.53C38.3795 38.68 38.1895 38.75 37.9995 38.75Z" fill="white"/>
</svg>
