<svg width="199" height="60" viewBox="0 0 199 60" fill="none" xmlns="http://www.w3.org/2000/svg">
<circle opacity="0.05" cx="30" cy="30" r="30" fill="#025595"/>
<path d="M83.14 15.52V13.84H87.8C88.5733 13.84 89.1933 13.6067 89.66 13.14C90.14 12.6733 90.38 12.06 90.38 11.3C90.38 10.5133 90.14 9.89333 89.66 9.44C89.1933 8.98667 88.5733 8.76 87.8 8.76H83.46V20H81.54V7.02H87.72C88.36 7.02 88.9533 7.11333 89.5 7.3C90.06 7.47333 90.5467 7.74 90.96 8.1C91.3867 8.46 91.7133 8.90667 91.94 9.44C92.18 9.97333 92.3 10.5933 92.3 11.3C92.3 11.9933 92.18 12.6067 91.94 13.14C91.7133 13.6733 91.3867 14.12 90.96 14.48C90.5467 14.8267 90.06 15.0867 89.5 15.26C88.9533 15.4333 88.36 15.52 87.72 15.52H83.14ZM94.2627 10.02H96.1827V20H94.2627V10.02ZM99.5627 11.72C98.8693 11.72 98.276 11.88 97.7827 12.2C97.3027 12.52 96.916 12.9133 96.6227 13.38C96.3427 13.8467 96.156 14.2933 96.0627 14.72L96.0427 13.58C96.056 13.4467 96.0893 13.24 96.1427 12.96C96.2093 12.6667 96.3227 12.34 96.4827 11.98C96.6427 11.62 96.856 11.28 97.1227 10.96C97.3893 10.6267 97.7227 10.3533 98.1227 10.14C98.5227 9.92667 99.0027 9.82 99.5627 9.82V11.72ZM103.374 5.9V7.96H100.994V5.9H103.374ZM101.234 10.02H103.134V20H101.234V10.02ZM115.4 16.2C115.32 17.0267 115.053 17.7467 114.6 18.36C114.16 18.96 113.58 19.42 112.86 19.74C112.14 20.06 111.34 20.22 110.46 20.22C109.486 20.22 108.593 20.02 107.78 19.62C106.966 19.2067 106.313 18.6133 105.82 17.84C105.34 17.0533 105.1 16.12 105.1 15.04C105.1 13.9467 105.34 13.0133 105.82 12.24C106.313 11.4533 106.966 10.8533 107.78 10.44C108.593 10.0267 109.486 9.82 110.46 9.82C111.34 9.82 112.133 9.98 112.84 10.3C113.546 10.62 114.126 11.08 114.58 11.68C115.033 12.2667 115.306 12.9733 115.4 13.8H113.66C113.433 13.08 113.026 12.5133 112.44 12.1C111.866 11.6733 111.206 11.46 110.46 11.46C109.846 11.46 109.273 11.6 108.74 11.88C108.22 12.16 107.8 12.5667 107.48 13.1C107.173 13.62 107.02 14.2667 107.02 15.04C107.02 15.7867 107.173 16.4267 107.48 16.96C107.8 17.48 108.22 17.88 108.74 18.16C109.26 18.4267 109.833 18.56 110.46 18.56C111.313 18.56 112.006 18.3533 112.54 17.94C113.073 17.5267 113.453 16.9467 113.68 16.2H115.4ZM124.877 16.76H126.697C126.59 17.4133 126.337 18 125.937 18.52C125.537 19.04 125.01 19.4533 124.357 19.76C123.704 20.0667 122.937 20.22 122.057 20.22C121.017 20.22 120.09 20 119.277 19.56C118.464 19.12 117.824 18.5133 117.357 17.74C116.89 16.9667 116.657 16.0667 116.657 15.04C116.657 14 116.884 13.0933 117.337 12.32C117.79 11.5333 118.417 10.92 119.217 10.48C120.017 10.04 120.93 9.82 121.957 9.82C123.037 9.82 123.944 10.0333 124.677 10.46C125.41 10.8867 125.95 11.52 126.297 12.36C126.657 13.1867 126.804 14.22 126.737 15.46H118.557C118.624 16.06 118.804 16.5933 119.097 17.06C119.404 17.5267 119.804 17.8933 120.297 18.16C120.804 18.4267 121.384 18.56 122.037 18.56C122.77 18.56 123.384 18.3933 123.877 18.06C124.37 17.7267 124.704 17.2933 124.877 16.76ZM121.977 11.46C121.11 11.46 120.39 11.6933 119.817 12.16C119.244 12.6133 118.864 13.22 118.677 13.98H124.817C124.764 13.1667 124.47 12.5467 123.937 12.12C123.404 11.68 122.75 11.46 121.977 11.46Z" fill="#16100D"/>
<path opacity="0.5" d="M84.824 40.382L86.156 40.616L85.706 43.118L84.374 42.884L84.824 40.382ZM82.412 54.062L82.844 51.56L84.176 51.794L83.744 54.296L82.412 54.062ZM80.918 48.932H82.25C82.286 49.448 82.478 49.868 82.826 50.192C83.186 50.504 83.708 50.66 84.392 50.66C84.788 50.66 85.106 50.612 85.346 50.516C85.586 50.408 85.754 50.264 85.85 50.084C85.958 49.892 86.012 49.682 86.012 49.454C86.012 49.178 85.94 48.962 85.796 48.806C85.664 48.638 85.478 48.5 85.238 48.392C85.01 48.284 84.746 48.176 84.446 48.068C84.098 47.948 83.738 47.816 83.366 47.672C83.006 47.516 82.664 47.336 82.34 47.132C82.028 46.916 81.776 46.652 81.584 46.34C81.392 46.028 81.296 45.656 81.296 45.224C81.296 44.864 81.368 44.528 81.512 44.216C81.656 43.904 81.86 43.634 82.124 43.406C82.4 43.166 82.718 42.98 83.078 42.848C83.45 42.716 83.858 42.65 84.302 42.65C84.902 42.65 85.406 42.77 85.814 43.01C86.234 43.25 86.552 43.586 86.768 44.018C86.996 44.45 87.116 44.954 87.128 45.53H85.886C85.802 45.002 85.628 44.618 85.364 44.378C85.112 44.126 84.746 44 84.266 44C83.774 44 83.396 44.108 83.132 44.324C82.868 44.54 82.736 44.828 82.736 45.188C82.736 45.452 82.832 45.674 83.024 45.854C83.216 46.022 83.462 46.172 83.762 46.304C84.074 46.436 84.404 46.574 84.752 46.718C85.1 46.862 85.436 47.006 85.76 47.15C86.084 47.294 86.372 47.468 86.624 47.672C86.876 47.864 87.074 48.104 87.218 48.392C87.374 48.668 87.452 49.016 87.452 49.436C87.452 49.94 87.332 50.39 87.092 50.786C86.864 51.17 86.522 51.47 86.066 51.686C85.622 51.902 85.076 52.01 84.428 52.01C83.708 52.01 83.108 51.896 82.628 51.668C82.16 51.44 81.794 51.158 81.53 50.822C81.278 50.474 81.104 50.132 81.008 49.796C80.912 49.448 80.882 49.16 80.918 48.932ZM88.3687 45.35V44H91.9147V53H90.4747V45.35H88.3687ZM98.8095 53.18C98.0415 53.18 97.3215 52.994 96.6495 52.622C95.9775 52.25 95.4315 51.716 95.0115 51.02C94.6035 50.312 94.3995 49.478 94.3995 48.518C94.3995 47.558 94.6035 46.73 95.0115 46.034C95.4315 45.326 95.9775 44.78 96.6495 44.396C97.3215 44.012 98.0415 43.82 98.8095 43.82C99.5775 43.82 100.291 44.012 100.951 44.396C101.623 44.78 102.163 45.326 102.571 46.034C102.979 46.73 103.183 47.558 103.183 48.518C103.183 49.478 102.979 50.312 102.571 51.02C102.163 51.716 101.623 52.25 100.951 52.622C100.291 52.994 99.5775 53.18 98.8095 53.18ZM98.8095 51.794C99.3015 51.794 99.7695 51.668 100.213 51.416C100.657 51.164 101.023 50.792 101.311 50.3C101.599 49.808 101.743 49.214 101.743 48.518C101.743 47.822 101.599 47.228 101.311 46.736C101.035 46.244 100.669 45.866 100.213 45.602C99.7695 45.338 99.3015 45.206 98.8095 45.206C98.3175 45.206 97.8435 45.338 97.3875 45.602C96.9315 45.854 96.5595 46.226 96.2715 46.718C95.9835 47.21 95.8395 47.81 95.8395 48.518C95.8395 49.214 95.9835 49.808 96.2715 50.3C96.5595 50.792 96.9315 51.164 97.3875 51.416C97.8435 51.668 98.3175 51.794 98.8095 51.794ZM109.171 53.18C108.403 53.18 107.683 52.994 107.011 52.622C106.339 52.25 105.793 51.716 105.373 51.02C104.965 50.312 104.761 49.478 104.761 48.518C104.761 47.558 104.965 46.73 105.373 46.034C105.793 45.326 106.339 44.78 107.011 44.396C107.683 44.012 108.403 43.82 109.171 43.82C109.939 43.82 110.653 44.012 111.313 44.396C111.985 44.78 112.525 45.326 112.933 46.034C113.341 46.73 113.545 47.558 113.545 48.518C113.545 49.478 113.341 50.312 112.933 51.02C112.525 51.716 111.985 52.25 111.313 52.622C110.653 52.994 109.939 53.18 109.171 53.18ZM109.171 51.794C109.663 51.794 110.131 51.668 110.575 51.416C111.019 51.164 111.385 50.792 111.673 50.3C111.961 49.808 112.105 49.214 112.105 48.518C112.105 47.822 111.961 47.228 111.673 46.736C111.397 46.244 111.031 45.866 110.575 45.602C110.131 45.338 109.663 45.206 109.171 45.206C108.679 45.206 108.205 45.338 107.749 45.602C107.293 45.854 106.921 46.226 106.633 46.718C106.345 47.21 106.201 47.81 106.201 48.518C106.201 49.214 106.345 49.808 106.633 50.3C106.921 50.792 107.293 51.164 107.749 51.416C108.205 51.668 108.679 51.794 109.171 51.794ZM119.534 53.18C118.766 53.18 118.046 52.994 117.374 52.622C116.702 52.25 116.156 51.716 115.736 51.02C115.328 50.312 115.124 49.478 115.124 48.518C115.124 47.558 115.328 46.73 115.736 46.034C116.156 45.326 116.702 44.78 117.374 44.396C118.046 44.012 118.766 43.82 119.534 43.82C120.302 43.82 121.016 44.012 121.676 44.396C122.348 44.78 122.888 45.326 123.296 46.034C123.704 46.73 123.908 47.558 123.908 48.518C123.908 49.478 123.704 50.312 123.296 51.02C122.888 51.716 122.348 52.25 121.676 52.622C121.016 52.994 120.302 53.18 119.534 53.18ZM119.534 51.794C120.026 51.794 120.494 51.668 120.938 51.416C121.382 51.164 121.748 50.792 122.036 50.3C122.324 49.808 122.468 49.214 122.468 48.518C122.468 47.822 122.324 47.228 122.036 46.736C121.76 46.244 121.394 45.866 120.938 45.602C120.494 45.338 120.026 45.206 119.534 45.206C119.042 45.206 118.568 45.338 118.112 45.602C117.656 45.854 117.284 46.226 116.996 46.718C116.708 47.21 116.564 47.81 116.564 48.518C116.564 49.214 116.708 49.808 116.996 50.3C117.284 50.792 117.656 51.164 118.112 51.416C118.568 51.668 119.042 51.794 119.534 51.794ZM129.585 47.474H134.805V48.806H129.585V47.474ZM144.412 40.382L145.744 40.616L145.294 43.118L143.962 42.884L144.412 40.382ZM142 54.062L142.432 51.56L143.764 51.794L143.332 54.296L142 54.062ZM140.506 48.932H141.838C141.874 49.448 142.066 49.868 142.414 50.192C142.774 50.504 143.296 50.66 143.98 50.66C144.376 50.66 144.694 50.612 144.934 50.516C145.174 50.408 145.342 50.264 145.438 50.084C145.546 49.892 145.6 49.682 145.6 49.454C145.6 49.178 145.528 48.962 145.384 48.806C145.252 48.638 145.066 48.5 144.826 48.392C144.598 48.284 144.334 48.176 144.034 48.068C143.686 47.948 143.326 47.816 142.954 47.672C142.594 47.516 142.252 47.336 141.928 47.132C141.616 46.916 141.364 46.652 141.172 46.34C140.98 46.028 140.884 45.656 140.884 45.224C140.884 44.864 140.956 44.528 141.1 44.216C141.244 43.904 141.448 43.634 141.712 43.406C141.988 43.166 142.306 42.98 142.666 42.848C143.038 42.716 143.446 42.65 143.89 42.65C144.49 42.65 144.994 42.77 145.402 43.01C145.822 43.25 146.14 43.586 146.356 44.018C146.584 44.45 146.704 44.954 146.716 45.53H145.474C145.39 45.002 145.216 44.618 144.952 44.378C144.7 44.126 144.334 44 143.854 44C143.362 44 142.984 44.108 142.72 44.324C142.456 44.54 142.324 44.828 142.324 45.188C142.324 45.452 142.42 45.674 142.612 45.854C142.804 46.022 143.05 46.172 143.35 46.304C143.662 46.436 143.992 46.574 144.34 46.718C144.688 46.862 145.024 47.006 145.348 47.15C145.672 47.294 145.96 47.468 146.212 47.672C146.464 47.864 146.662 48.104 146.806 48.392C146.962 48.668 147.04 49.016 147.04 49.436C147.04 49.94 146.92 50.39 146.68 50.786C146.452 51.17 146.11 51.47 145.654 51.686C145.21 51.902 144.664 52.01 144.016 52.01C143.296 52.01 142.696 51.896 142.216 51.668C141.748 51.44 141.382 51.158 141.118 50.822C140.866 50.474 140.692 50.132 140.596 49.796C140.5 49.448 140.47 49.16 140.506 48.932ZM147.956 45.35V44H151.502V53H150.062V45.35H147.956ZM158.397 53.18C157.629 53.18 156.909 52.994 156.237 52.622C155.565 52.25 155.019 51.716 154.599 51.02C154.191 50.312 153.987 49.478 153.987 48.518C153.987 47.558 154.191 46.73 154.599 46.034C155.019 45.326 155.565 44.78 156.237 44.396C156.909 44.012 157.629 43.82 158.397 43.82C159.165 43.82 159.879 44.012 160.539 44.396C161.211 44.78 161.751 45.326 162.159 46.034C162.567 46.73 162.771 47.558 162.771 48.518C162.771 49.478 162.567 50.312 162.159 51.02C161.751 51.716 161.211 52.25 160.539 52.622C159.879 52.994 159.165 53.18 158.397 53.18ZM158.397 51.794C158.889 51.794 159.357 51.668 159.801 51.416C160.245 51.164 160.611 50.792 160.899 50.3C161.187 49.808 161.331 49.214 161.331 48.518C161.331 47.822 161.187 47.228 160.899 46.736C160.623 46.244 160.257 45.866 159.801 45.602C159.357 45.338 158.889 45.206 158.397 45.206C157.905 45.206 157.431 45.338 156.975 45.602C156.519 45.854 156.147 46.226 155.859 46.718C155.571 47.21 155.427 47.81 155.427 48.518C155.427 49.214 155.571 49.808 155.859 50.3C156.147 50.792 156.519 51.164 156.975 51.416C157.431 51.668 157.905 51.794 158.397 51.794ZM164.781 55.556L164.403 55.16C164.595 54.824 164.763 54.488 164.907 54.152C165.051 53.828 165.129 53.51 165.141 53.198L164.259 53V51.254H166.203V52.514C166.203 53.246 166.053 53.846 165.753 54.314C165.465 54.782 165.141 55.196 164.781 55.556ZM172.108 53.18C171.34 53.18 170.62 52.994 169.948 52.622C169.276 52.25 168.73 51.716 168.31 51.02C167.902 50.312 167.698 49.478 167.698 48.518C167.698 47.558 167.902 46.73 168.31 46.034C168.73 45.326 169.276 44.78 169.948 44.396C170.62 44.012 171.34 43.82 172.108 43.82C172.876 43.82 173.59 44.012 174.25 44.396C174.922 44.78 175.462 45.326 175.87 46.034C176.278 46.73 176.482 47.558 176.482 48.518C176.482 49.478 176.278 50.312 175.87 51.02C175.462 51.716 174.922 52.25 174.25 52.622C173.59 52.994 172.876 53.18 172.108 53.18ZM172.108 51.794C172.6 51.794 173.068 51.668 173.512 51.416C173.956 51.164 174.322 50.792 174.61 50.3C174.898 49.808 175.042 49.214 175.042 48.518C175.042 47.822 174.898 47.228 174.61 46.736C174.334 46.244 173.968 45.866 173.512 45.602C173.068 45.338 172.6 45.206 172.108 45.206C171.616 45.206 171.142 45.338 170.686 45.602C170.23 45.854 169.858 46.226 169.57 46.718C169.282 47.21 169.138 47.81 169.138 48.518C169.138 49.214 169.282 49.808 169.57 50.3C169.858 50.792 170.23 51.164 170.686 51.416C171.142 51.668 171.616 51.794 172.108 51.794ZM182.47 53.18C181.702 53.18 180.982 52.994 180.31 52.622C179.638 52.25 179.092 51.716 178.672 51.02C178.264 50.312 178.06 49.478 178.06 48.518C178.06 47.558 178.264 46.73 178.672 46.034C179.092 45.326 179.638 44.78 180.31 44.396C180.982 44.012 181.702 43.82 182.47 43.82C183.238 43.82 183.952 44.012 184.612 44.396C185.284 44.78 185.824 45.326 186.232 46.034C186.64 46.73 186.844 47.558 186.844 48.518C186.844 49.478 186.64 50.312 186.232 51.02C185.824 51.716 185.284 52.25 184.612 52.622C183.952 52.994 183.238 53.18 182.47 53.18ZM182.47 51.794C182.962 51.794 183.43 51.668 183.874 51.416C184.318 51.164 184.684 50.792 184.972 50.3C185.26 49.808 185.404 49.214 185.404 48.518C185.404 47.822 185.26 47.228 184.972 46.736C184.696 46.244 184.33 45.866 183.874 45.602C183.43 45.338 182.962 45.206 182.47 45.206C181.978 45.206 181.504 45.338 181.048 45.602C180.592 45.854 180.22 46.226 179.932 46.718C179.644 47.21 179.5 47.81 179.5 48.518C179.5 49.214 179.644 49.808 179.932 50.3C180.22 50.792 180.592 51.164 181.048 51.416C181.504 51.668 181.978 51.794 182.47 51.794ZM192.832 53.18C192.064 53.18 191.344 52.994 190.672 52.622C190 52.25 189.454 51.716 189.034 51.02C188.626 50.312 188.422 49.478 188.422 48.518C188.422 47.558 188.626 46.73 189.034 46.034C189.454 45.326 190 44.78 190.672 44.396C191.344 44.012 192.064 43.82 192.832 43.82C193.6 43.82 194.314 44.012 194.974 44.396C195.646 44.78 196.186 45.326 196.594 46.034C197.002 46.73 197.206 47.558 197.206 48.518C197.206 49.478 197.002 50.312 196.594 51.02C196.186 51.716 195.646 52.25 194.974 52.622C194.314 52.994 193.6 53.18 192.832 53.18ZM192.832 51.794C193.324 51.794 193.792 51.668 194.236 51.416C194.68 51.164 195.046 50.792 195.334 50.3C195.622 49.808 195.766 49.214 195.766 48.518C195.766 47.822 195.622 47.228 195.334 46.736C195.058 46.244 194.692 45.866 194.236 45.602C193.792 45.338 193.324 45.206 192.832 45.206C192.34 45.206 191.866 45.338 191.41 45.602C190.954 45.854 190.582 46.226 190.294 46.718C190.006 47.21 189.862 47.81 189.862 48.518C189.862 49.214 190.006 49.808 190.294 50.3C190.582 50.792 190.954 51.164 191.41 51.416C191.866 51.668 192.34 51.794 192.832 51.794Z" fill="#16100D"/>
<path opacity="0.4" d="M30 42.375C36.9036 42.375 42.5 36.7786 42.5 29.875C42.5 22.9715 36.9036 17.375 30 17.375C23.0964 17.375 17.5 22.9715 17.5 29.875C17.5 36.7786 23.0964 42.375 30 42.375Z" fill="#025595"/>
<path d="M32.8242 30L30.9367 29.3375V25.1H31.3867C32.3992 25.1 33.2242 25.9875 33.2242 27.075C33.2242 27.5875 33.6492 28.0125 34.1617 28.0125C34.6742 28.0125 35.0992 27.5875 35.0992 27.075C35.0992 24.95 33.4367 23.225 31.3867 23.225H30.9367V22.5C30.9367 21.9875 30.5117 21.5625 29.9992 21.5625C29.4867 21.5625 29.0617 21.9875 29.0617 22.5V23.225H28.2492C26.3992 23.225 24.8867 24.7875 24.8867 26.7C24.8867 28.9375 26.1867 29.65 27.1742 30L29.0617 30.6625V34.8875H28.6117C27.5992 34.8875 26.7742 34 26.7742 32.9125C26.7742 32.4 26.3492 31.975 25.8367 31.975C25.3242 31.975 24.8992 32.4 24.8992 32.9125C24.8992 35.0375 26.5617 36.7625 28.6117 36.7625H29.0617V37.5C29.0617 38.0125 29.4867 38.4375 29.9992 38.4375C30.5117 38.4375 30.9367 38.0125 30.9367 37.5V36.775H31.7492C33.5992 36.775 35.1117 35.2125 35.1117 33.3C35.0992 31.05 33.7992 30.3375 32.8242 30ZM27.7992 28.2375C27.1617 28.0125 26.7742 27.8 26.7742 26.7125C26.7742 25.825 27.4367 25.1125 28.2617 25.1125H29.0742V28.6875L27.7992 28.2375ZM31.7492 34.9H30.9367V31.325L32.1992 31.7625C32.8367 31.9875 33.2242 32.2 33.2242 33.2875C33.2242 34.175 32.5617 34.9 31.7492 34.9Z" fill="#025595"/>
</svg>
