<svg width="233" height="60" viewBox="0 0 233 60" fill="none" xmlns="http://www.w3.org/2000/svg">
<circle opacity="0.05" cx="30" cy="30" r="30" fill="#025595"/>
<path d="M80.34 7.02H91.72V8.74H80.34V7.02ZM85.06 8.54H87V20H85.06V8.54ZM90.9212 10.02H92.9612L96.7813 19.6L95.1213 20L90.9212 10.02ZM101.101 10.02L95.1213 24H93.1012L95.6812 18.58L99.0813 10.02H101.101ZM108.219 20.22C107.446 20.22 106.799 20.0533 106.279 19.72C105.759 19.3867 105.353 18.9533 105.059 18.42C104.766 17.8867 104.553 17.32 104.419 16.72C104.286 16.12 104.219 15.5533 104.219 15.02C104.219 14.3 104.279 13.6267 104.399 13C104.533 12.3733 104.746 11.82 105.039 11.34C105.333 10.86 105.739 10.4867 106.259 10.22C106.779 9.95333 107.433 9.82 108.219 9.82C109.086 9.82 109.866 10.0467 110.559 10.5C111.253 10.94 111.806 11.5533 112.219 12.34C112.646 13.1267 112.859 14.02 112.859 15.02C112.859 16.0467 112.646 16.9533 112.219 17.74C111.793 18.5133 111.226 19.12 110.519 19.56C109.826 20 109.059 20.22 108.219 20.22ZM107.679 18.54C108.319 18.54 108.886 18.3933 109.379 18.1C109.873 17.7933 110.253 17.38 110.519 16.86C110.799 16.3267 110.939 15.7133 110.939 15.02C110.939 13.9933 110.653 13.1467 110.079 12.48C109.519 11.8133 108.719 11.48 107.679 11.48C107.053 11.48 106.493 11.6267 105.999 11.92C105.519 12.2133 105.139 12.6267 104.859 13.16C104.579 13.6933 104.439 14.3133 104.439 15.02C104.439 15.6867 104.559 16.2867 104.799 16.82C105.053 17.34 105.419 17.76 105.899 18.08C106.379 18.3867 106.973 18.54 107.679 18.54ZM102.519 10.02H104.359L104.439 12.28V24H102.519V10.02ZM122.343 16.76H124.163C124.056 17.4133 123.803 18 123.403 18.52C123.003 19.04 122.476 19.4533 121.823 19.76C121.17 20.0667 120.403 20.22 119.523 20.22C118.483 20.22 117.556 20 116.743 19.56C115.93 19.12 115.29 18.5133 114.823 17.74C114.356 16.9667 114.123 16.0667 114.123 15.04C114.123 14 114.35 13.0933 114.803 12.32C115.256 11.5333 115.883 10.92 116.683 10.48C117.483 10.04 118.396 9.82 119.423 9.82C120.503 9.82 121.41 10.0333 122.143 10.46C122.876 10.8867 123.416 11.52 123.763 12.36C124.123 13.1867 124.27 14.22 124.203 15.46H116.023C116.09 16.06 116.27 16.5933 116.563 17.06C116.87 17.5267 117.27 17.8933 117.763 18.16C118.27 18.4267 118.85 18.56 119.503 18.56C120.236 18.56 120.85 18.3933 121.343 18.06C121.836 17.7267 122.17 17.2933 122.343 16.76ZM119.443 11.46C118.576 11.46 117.856 11.6933 117.283 12.16C116.71 12.6133 116.33 13.22 116.143 13.98H122.283C122.23 13.1667 121.936 12.5467 121.403 12.12C120.87 11.68 120.216 11.46 119.443 11.46ZM135 20.22C134.026 20.22 133.133 20.0133 132.32 19.6C131.506 19.1867 130.86 18.5933 130.38 17.82C129.9 17.0467 129.66 16.12 129.66 15.04C129.66 13.9467 129.9 13.0133 130.38 12.24C130.86 11.4533 131.506 10.8533 132.32 10.44C133.133 10.0267 134.026 9.82 135 9.82C135.973 9.82 136.86 10.0267 137.66 10.44C138.46 10.8533 139.1 11.4533 139.58 12.24C140.06 13.0133 140.3 13.9467 140.3 15.04C140.3 16.12 140.06 17.0467 139.58 17.82C139.1 18.5933 138.46 19.1867 137.66 19.6C136.86 20.0133 135.973 20.22 135 20.22ZM135 18.56C135.6 18.56 136.153 18.4267 136.66 18.16C137.18 17.88 137.593 17.48 137.9 16.96C138.22 16.4267 138.38 15.7867 138.38 15.04C138.38 14.28 138.22 13.6333 137.9 13.1C137.593 12.5667 137.18 12.16 136.66 11.88C136.153 11.6 135.6 11.46 135 11.46C134.4 11.46 133.84 11.6 133.32 11.88C132.8 12.1467 132.38 12.5467 132.06 13.08C131.74 13.6133 131.58 14.2667 131.58 15.04C131.58 15.7867 131.733 16.4267 132.04 16.96C132.36 17.48 132.78 17.88 133.3 18.16C133.82 18.4267 134.386 18.56 135 18.56ZM141.213 10.08H147.753V11.72H141.213V10.08ZM146.673 6.02H147.953V7.78H146.873C146.526 7.76667 146.213 7.81333 145.933 7.92C145.653 8.01333 145.433 8.18667 145.273 8.44C145.126 8.69333 145.053 9.06 145.053 9.54V20H143.153V9.44C143.153 8.64 143.293 7.98667 143.573 7.48C143.866 6.97333 144.279 6.60667 144.813 6.38C145.346 6.14 145.966 6.02 146.673 6.02ZM155.286 15.52V13.84H159.946C160.72 13.84 161.34 13.6067 161.806 13.14C162.286 12.6733 162.526 12.06 162.526 11.3C162.526 10.5133 162.286 9.89333 161.806 9.44C161.34 8.98667 160.72 8.76 159.946 8.76H155.606V20H153.686V7.02H159.866C160.506 7.02 161.1 7.11333 161.646 7.3C162.206 7.47333 162.693 7.74 163.106 8.1C163.533 8.46 163.86 8.90667 164.086 9.44C164.326 9.97333 164.446 10.5933 164.446 11.3C164.446 11.9933 164.326 12.6067 164.086 13.14C163.86 13.6733 163.533 14.12 163.106 14.48C162.693 14.8267 162.206 15.0867 161.646 15.26C161.1 15.4333 160.506 15.52 159.866 15.52H155.286ZM166.409 10.02H168.329V20H166.409V10.02ZM171.709 11.72C171.016 11.72 170.422 11.88 169.929 12.2C169.449 12.52 169.062 12.9133 168.769 13.38C168.489 13.8467 168.302 14.2933 168.209 14.72L168.189 13.58C168.202 13.4467 168.236 13.24 168.289 12.96C168.356 12.6667 168.469 12.34 168.629 11.98C168.789 11.62 169.002 11.28 169.269 10.96C169.536 10.6267 169.869 10.3533 170.269 10.14C170.669 9.92667 171.149 9.82 171.709 9.82V11.72ZM178.04 20.22C177.067 20.22 176.173 20.0133 175.36 19.6C174.547 19.1867 173.9 18.5933 173.42 17.82C172.94 17.0467 172.7 16.12 172.7 15.04C172.7 13.9467 172.94 13.0133 173.42 12.24C173.9 11.4533 174.547 10.8533 175.36 10.44C176.173 10.0267 177.067 9.82 178.04 9.82C179.013 9.82 179.9 10.0267 180.7 10.44C181.5 10.8533 182.14 11.4533 182.62 12.24C183.1 13.0133 183.34 13.9467 183.34 15.04C183.34 16.12 183.1 17.0467 182.62 17.82C182.14 18.5933 181.5 19.1867 180.7 19.6C179.9 20.0133 179.013 20.22 178.04 20.22ZM178.04 18.56C178.64 18.56 179.193 18.4267 179.7 18.16C180.22 17.88 180.633 17.48 180.94 16.96C181.26 16.4267 181.42 15.7867 181.42 15.04C181.42 14.28 181.26 13.6333 180.94 13.1C180.633 12.5667 180.22 12.16 179.7 11.88C179.193 11.6 178.64 11.46 178.04 11.46C177.44 11.46 176.88 11.6 176.36 11.88C175.84 12.1467 175.42 12.5467 175.1 13.08C174.78 13.6133 174.62 14.2667 174.62 15.04C174.62 15.7867 174.773 16.4267 175.08 16.96C175.4 17.48 175.82 17.88 176.34 18.16C176.86 18.4267 177.427 18.56 178.04 18.56ZM190.829 20.22C190.056 20.22 189.409 20.0533 188.889 19.72C188.369 19.3867 187.962 18.9533 187.669 18.42C187.376 17.8867 187.162 17.32 187.029 16.72C186.896 16.12 186.829 15.5533 186.829 15.02C186.829 14.3 186.889 13.6267 187.009 13C187.142 12.3733 187.356 11.82 187.649 11.34C187.942 10.86 188.349 10.4867 188.869 10.22C189.389 9.95333 190.042 9.82 190.829 9.82C191.696 9.82 192.476 10.0467 193.169 10.5C193.862 10.94 194.416 11.5533 194.829 12.34C195.256 13.1267 195.469 14.02 195.469 15.02C195.469 16.0467 195.256 16.9533 194.829 17.74C194.402 18.5133 193.836 19.12 193.129 19.56C192.436 20 191.669 20.22 190.829 20.22ZM190.289 18.54C190.929 18.54 191.496 18.3933 191.989 18.1C192.482 17.7933 192.862 17.38 193.129 16.86C193.409 16.3267 193.549 15.7133 193.549 15.02C193.549 13.9933 193.262 13.1467 192.689 12.48C192.129 11.8133 191.329 11.48 190.289 11.48C189.662 11.48 189.102 11.6267 188.609 11.92C188.129 12.2133 187.749 12.6267 187.469 13.16C187.189 13.6933 187.049 14.3133 187.049 15.02C187.049 15.6867 187.169 16.2867 187.409 16.82C187.662 17.34 188.029 17.76 188.509 18.08C188.989 18.3867 189.582 18.54 190.289 18.54ZM185.129 10.02H186.969L187.049 12.28V24H185.129V10.02ZM204.953 16.76H206.773C206.666 17.4133 206.413 18 206.013 18.52C205.613 19.04 205.086 19.4533 204.433 19.76C203.779 20.0667 203.013 20.22 202.133 20.22C201.093 20.22 200.166 20 199.353 19.56C198.539 19.12 197.899 18.5133 197.433 17.74C196.966 16.9667 196.733 16.0667 196.733 15.04C196.733 14 196.959 13.0933 197.413 12.32C197.866 11.5333 198.493 10.92 199.293 10.48C200.093 10.04 201.006 9.82 202.033 9.82C203.113 9.82 204.019 10.0333 204.753 10.46C205.486 10.8867 206.026 11.52 206.373 12.36C206.733 13.1867 206.879 14.22 206.813 15.46H198.633C198.699 16.06 198.879 16.5933 199.173 17.06C199.479 17.5267 199.879 17.8933 200.373 18.16C200.879 18.4267 201.459 18.56 202.113 18.56C202.846 18.56 203.459 18.3933 203.953 18.06C204.446 17.7267 204.779 17.2933 204.953 16.76ZM202.053 11.46C201.186 11.46 200.466 11.6933 199.893 12.16C199.319 12.6133 198.939 13.22 198.753 13.98H204.893C204.839 13.1667 204.546 12.5467 204.013 12.12C203.479 11.68 202.826 11.46 202.053 11.46ZM208.615 10.02H210.535V20H208.615V10.02ZM213.915 11.72C213.222 11.72 212.628 11.88 212.135 12.2C211.655 12.52 211.268 12.9133 210.975 13.38C210.695 13.8467 210.508 14.2933 210.415 14.72L210.395 13.58C210.408 13.4467 210.442 13.24 210.495 12.96C210.562 12.6667 210.675 12.34 210.835 11.98C210.995 11.62 211.208 11.28 211.475 10.96C211.742 10.6267 212.075 10.3533 212.475 10.14C212.875 9.92667 213.355 9.82 213.915 9.82V11.72ZM214.746 10.02H221.206V11.68H214.746V10.02ZM217.026 7.38H218.926V20H217.026V7.38ZM221.904 10.02H223.944L227.764 19.6L226.104 20L221.904 10.02ZM232.084 10.02L226.104 24H224.084L226.664 18.58L230.064 10.02H232.084Z" fill="#16100D"/>
<path opacity="0.5" d="M82.736 49.94V48.59H88.352V49.94H82.736ZM80.36 53L84.806 41.3H86.318L90.8 53H89.252L85.346 42.416H85.778L81.872 53H80.36ZM96.6121 53.18C95.9521 53.18 95.4121 53.03 94.9921 52.73C94.5721 52.418 94.2421 52.022 94.0021 51.542C93.7741 51.05 93.6121 50.54 93.5161 50.012C93.4201 49.472 93.3721 48.974 93.3721 48.518C93.3721 47.87 93.4141 47.264 93.4981 46.7C93.5941 46.136 93.7561 45.638 93.9841 45.206C94.2121 44.774 94.5361 44.438 94.9561 44.198C95.3881 43.946 95.9401 43.82 96.6121 43.82C97.3321 43.82 97.9861 44.024 98.5741 44.432C99.1621 44.84 99.6301 45.398 99.9781 46.106C100.338 46.814 100.518 47.618 100.518 48.518C100.518 49.418 100.338 50.222 99.9781 50.93C99.6181 51.626 99.1381 52.178 98.5381 52.586C97.9501 52.982 97.3081 53.18 96.6121 53.18ZM96.2521 51.812C96.8041 51.812 97.2901 51.674 97.7101 51.398C98.1421 51.11 98.4781 50.72 98.7181 50.228C98.9581 49.724 99.0781 49.154 99.0781 48.518C99.0781 47.558 98.8321 46.766 98.3401 46.142C97.8481 45.506 97.1521 45.188 96.2521 45.188C95.7241 45.188 95.2561 45.332 94.8481 45.62C94.4401 45.896 94.1221 46.286 93.8941 46.79C93.6661 47.282 93.5521 47.858 93.5521 48.518C93.5521 49.118 93.6481 49.67 93.8401 50.174C94.0441 50.666 94.3441 51.062 94.7401 51.362C95.1361 51.662 95.6401 51.812 96.2521 51.812ZM92.1121 44H93.4981L93.5521 45.89V56.6H92.1121V44ZM105.542 53.18C104.834 53.18 104.18 52.982 103.58 52.586C102.992 52.178 102.518 51.626 102.158 50.93C101.81 50.222 101.636 49.418 101.636 48.518C101.636 47.618 101.816 46.814 102.176 46.106C102.536 45.398 103.022 44.84 103.634 44.432C104.258 44.024 104.954 43.82 105.722 43.82C106.562 43.82 107.198 44.036 107.63 44.468C108.074 44.888 108.374 45.452 108.53 46.16C108.698 46.868 108.782 47.654 108.782 48.518C108.782 48.974 108.734 49.472 108.638 50.012C108.542 50.54 108.374 51.05 108.134 51.542C107.906 52.022 107.582 52.418 107.162 52.73C106.742 53.03 106.202 53.18 105.542 53.18ZM105.902 51.812C106.514 51.812 107.018 51.662 107.414 51.362C107.822 51.062 108.122 50.666 108.314 50.174C108.506 49.67 108.602 49.118 108.602 48.518C108.602 47.858 108.5 47.282 108.296 46.79C108.104 46.286 107.804 45.896 107.396 45.62C107 45.332 106.502 45.188 105.902 45.188C105.002 45.188 104.306 45.506 103.814 46.142C103.322 46.766 103.076 47.558 103.076 48.518C103.076 49.154 103.196 49.724 103.436 50.228C103.688 50.72 104.024 51.11 104.444 51.398C104.876 51.674 105.362 51.812 105.902 51.812ZM108.602 44H110.042V53H108.728C108.728 53 108.716 52.892 108.692 52.676C108.68 52.46 108.662 52.208 108.638 51.92C108.614 51.632 108.602 51.392 108.602 51.2V44ZM112.168 44H113.608V53H112.168V44ZM116.488 45.35C115.876 45.35 115.36 45.506 114.94 45.818C114.532 46.118 114.208 46.49 113.968 46.934C113.74 47.366 113.59 47.786 113.518 48.194L113.5 47.15C113.5 47.042 113.524 46.862 113.572 46.61C113.62 46.358 113.71 46.076 113.842 45.764C113.974 45.44 114.148 45.134 114.364 44.846C114.592 44.546 114.88 44.3 115.228 44.108C115.576 43.916 115.996 43.82 116.488 43.82V45.35ZM117.26 44H122.552V45.35H117.26V44ZM119.186 41.66H120.626V53H119.186V41.66ZM124.033 44H125.473V53H124.033V44ZM128.569 43.82C129.049 43.82 129.481 43.892 129.865 44.036C130.249 44.18 130.573 44.39 130.837 44.666C131.101 44.942 131.305 45.278 131.449 45.674C131.593 46.058 131.665 46.496 131.665 46.988V53H130.225V47.348C130.225 46.652 130.063 46.13 129.739 45.782C129.415 45.434 128.929 45.26 128.281 45.26C127.789 45.26 127.333 45.386 126.913 45.638C126.493 45.89 126.145 46.238 125.869 46.682C125.605 47.114 125.443 47.618 125.383 48.194L125.365 47.15C125.425 46.646 125.545 46.19 125.725 45.782C125.917 45.374 126.151 45.026 126.427 44.738C126.715 44.438 127.039 44.21 127.399 44.054C127.771 43.898 128.161 43.82 128.569 43.82ZM134.617 43.82C135.097 43.82 135.529 43.892 135.913 44.036C136.297 44.18 136.621 44.39 136.885 44.666C137.149 44.942 137.353 45.278 137.497 45.674C137.641 46.058 137.713 46.496 137.713 46.988V53H136.273V47.348C136.273 46.652 136.111 46.13 135.787 45.782C135.463 45.434 134.977 45.26 134.329 45.26C133.837 45.26 133.381 45.386 132.961 45.638C132.541 45.89 132.193 46.238 131.917 46.682C131.653 47.114 131.491 47.618 131.431 48.194L131.413 47.15C131.473 46.646 131.593 46.19 131.773 45.782C131.965 45.374 132.199 45.026 132.475 44.738C132.763 44.438 133.087 44.21 133.447 44.054C133.819 43.898 134.209 43.82 134.617 43.82ZM146.199 50.102H147.549C147.453 50.69 147.237 51.218 146.901 51.686C146.577 52.142 146.145 52.508 145.605 52.784C145.077 53.048 144.465 53.18 143.769 53.18C142.929 53.18 142.173 52.982 141.501 52.586C140.829 52.178 140.295 51.626 139.899 50.93C139.515 50.222 139.323 49.418 139.323 48.518C139.323 47.618 139.509 46.814 139.881 46.106C140.265 45.398 140.787 44.84 141.447 44.432C142.107 44.024 142.851 43.82 143.679 43.82C144.555 43.82 145.293 44.018 145.893 44.414C146.505 44.798 146.955 45.368 147.243 46.124C147.543 46.868 147.663 47.786 147.603 48.878H140.763C140.823 49.466 140.985 49.982 141.249 50.426C141.513 50.87 141.861 51.218 142.293 51.47C142.725 51.71 143.217 51.83 143.769 51.83C144.381 51.83 144.897 51.674 145.317 51.362C145.749 51.038 146.043 50.618 146.199 50.102ZM143.733 45.17C142.989 45.17 142.365 45.386 141.861 45.818C141.357 46.25 141.021 46.838 140.853 47.582H146.127C146.079 46.79 145.821 46.19 145.353 45.782C144.897 45.374 144.357 45.17 143.733 45.17ZM149.239 44H150.679V53H149.239V44ZM153.775 43.82C154.255 43.82 154.687 43.892 155.071 44.036C155.455 44.18 155.779 44.39 156.043 44.666C156.307 44.942 156.511 45.278 156.655 45.674C156.799 46.058 156.871 46.496 156.871 46.988V53H155.431V47.348C155.431 46.652 155.269 46.13 154.945 45.782C154.621 45.434 154.135 45.26 153.487 45.26C152.995 45.26 152.539 45.386 152.119 45.638C151.699 45.89 151.351 46.238 151.075 46.682C150.811 47.114 150.649 47.618 150.589 48.194L150.571 47.15C150.631 46.646 150.751 46.19 150.931 45.782C151.123 45.374 151.357 45.026 151.633 44.738C151.921 44.438 152.245 44.21 152.605 44.054C152.977 43.898 153.367 43.82 153.775 43.82ZM158.356 44H163.648V45.35H158.356V44ZM160.282 41.66H161.722V53H160.282V41.66Z" fill="#16100D"/>
<path d="M42.5 43.4375H17.5C16.9875 43.4375 16.5625 43.0125 16.5625 42.5C16.5625 41.9875 16.9875 41.5625 17.5 41.5625H42.5C43.0125 41.5625 43.4375 41.9875 43.4375 42.5C43.4375 43.0125 43.0125 43.4375 42.5 43.4375Z" fill="#025595"/>
<path opacity="0.4" d="M41.25 27.4749V42.4999H18.6875L18.75 27.4624C18.75 26.6999 19.1 25.975 19.7125 25.5L28.4625 18.7C29.3625 17.9875 30.6375 17.9875 31.5375 18.7L33.2125 19.9999L38.75 24.2999L40.2875 25.5C40.9 25.975 41.25 26.6999 41.25 27.4749Z" fill="#025595"/>
<path d="M31.25 36.25H28.75C27.7125 36.25 26.875 37.0875 26.875 38.125V42.5H33.125V38.125C33.125 37.0875 32.2875 36.25 31.25 36.25Z" fill="#025595"/>
<path d="M26.875 32.1875H24.375C23.6875 32.1875 23.125 31.625 23.125 30.9375V29.0625C23.125 28.375 23.6875 27.8125 24.375 27.8125H26.875C27.5625 27.8125 28.125 28.375 28.125 29.0625V30.9375C28.125 31.625 27.5625 32.1875 26.875 32.1875Z" fill="#025595"/>
<path d="M35.625 32.1875H33.125C32.4375 32.1875 31.875 31.625 31.875 30.9375V29.0625C31.875 28.375 32.4375 27.8125 33.125 27.8125H35.625C36.3125 27.8125 36.875 28.375 36.875 29.0625V30.9375C36.875 31.625 36.3125 32.1875 35.625 32.1875Z" fill="#025595"/>
<path d="M38.7504 24.3L33.2129 20H37.4754C38.1629 20 38.7254 20.55 38.7254 21.2375L38.7504 24.3Z" fill="#025595"/>
</svg>
