<svg width="223" height="60" viewBox="0 0 223 60" fill="none" xmlns="http://www.w3.org/2000/svg">
<circle opacity="0.05" cx="30" cy="30" r="30" fill="#025595"/>
<path d="M83.5 7.02V18.28H91.14V20H81.58V7.02H83.5ZM97.5983 20.22C96.6249 20.22 95.7316 20.0133 94.9183 19.6C94.1049 19.1867 93.4583 18.5933 92.9783 17.82C92.4983 17.0467 92.2583 16.12 92.2583 15.04C92.2583 13.9467 92.4983 13.0133 92.9783 12.24C93.4583 11.4533 94.1049 10.8533 94.9183 10.44C95.7316 10.0267 96.6249 9.82 97.5983 9.82C98.5716 9.82 99.4583 10.0267 100.258 10.44C101.058 10.8533 101.698 11.4533 102.178 12.24C102.658 13.0133 102.898 13.9467 102.898 15.04C102.898 16.12 102.658 17.0467 102.178 17.82C101.698 18.5933 101.058 19.1867 100.258 19.6C99.4583 20.0133 98.5716 20.22 97.5983 20.22ZM97.5983 18.56C98.1983 18.56 98.7516 18.4267 99.2583 18.16C99.7783 17.88 100.192 17.48 100.498 16.96C100.818 16.4267 100.978 15.7867 100.978 15.04C100.978 14.28 100.818 13.6333 100.498 13.1C100.192 12.5667 99.7783 12.16 99.2583 11.88C98.7516 11.6 98.1983 11.46 97.5983 11.46C96.9983 11.46 96.4383 11.6 95.9183 11.88C95.3983 12.1467 94.9783 12.5467 94.6583 13.08C94.3383 13.6133 94.1783 14.2667 94.1783 15.04C94.1783 15.7867 94.3316 16.4267 94.6383 16.96C94.9583 17.48 95.3783 17.88 95.8983 18.16C96.4183 18.4267 96.9849 18.56 97.5983 18.56ZM114.467 16.2C114.387 17.0267 114.121 17.7467 113.667 18.36C113.227 18.96 112.647 19.42 111.927 19.74C111.207 20.06 110.407 20.22 109.527 20.22C108.554 20.22 107.661 20.02 106.847 19.62C106.034 19.2067 105.381 18.6133 104.887 17.84C104.407 17.0533 104.167 16.12 104.167 15.04C104.167 13.9467 104.407 13.0133 104.887 12.24C105.381 11.4533 106.034 10.8533 106.847 10.44C107.661 10.0267 108.554 9.82 109.527 9.82C110.407 9.82 111.201 9.98 111.907 10.3C112.614 10.62 113.194 11.08 113.647 11.68C114.101 12.2667 114.374 12.9733 114.467 13.8H112.727C112.501 13.08 112.094 12.5133 111.507 12.1C110.934 11.6733 110.274 11.46 109.527 11.46C108.914 11.46 108.341 11.6 107.807 11.88C107.287 12.16 106.867 12.5667 106.547 13.1C106.241 13.62 106.087 14.2667 106.087 15.04C106.087 15.7867 106.241 16.4267 106.547 16.96C106.867 17.48 107.287 17.88 107.807 18.16C108.327 18.4267 108.901 18.56 109.527 18.56C110.381 18.56 111.074 18.3533 111.607 17.94C112.141 17.5267 112.521 16.9467 112.747 16.2H114.467ZM120.365 20.2C119.511 20.2 118.731 19.98 118.025 19.54C117.318 19.1 116.758 18.4933 116.345 17.72C115.931 16.9333 115.725 16.0333 115.725 15.02C115.725 14.0067 115.931 13.1133 116.345 12.34C116.771 11.5533 117.351 10.94 118.085 10.5C118.818 10.0467 119.638 9.82 120.545 9.82C121.545 9.82 122.318 10.0533 122.865 10.52C123.425 10.9867 123.811 11.6133 124.025 12.4C124.251 13.1867 124.365 14.06 124.365 15.02C124.365 15.5533 124.298 16.12 124.165 16.72C124.031 17.32 123.818 17.8867 123.525 18.42C123.231 18.9533 122.825 19.3867 122.305 19.72C121.785 20.04 121.138 20.2 120.365 20.2ZM120.905 18.54C121.611 18.54 122.205 18.3867 122.685 18.08C123.178 17.76 123.545 17.3333 123.785 16.8C124.025 16.2667 124.145 15.6733 124.145 15.02C124.145 14.3133 124.018 13.6933 123.765 13.16C123.525 12.6267 123.158 12.2133 122.665 11.92C122.185 11.6267 121.598 11.48 120.905 11.48C119.865 11.48 119.058 11.8133 118.485 12.48C117.925 13.1467 117.645 13.9933 117.645 15.02C117.645 15.7133 117.785 16.3267 118.065 16.86C118.345 17.38 118.725 17.7933 119.205 18.1C119.698 18.3933 120.265 18.54 120.905 18.54ZM124.145 10.02H126.065V20H124.305C124.305 20 124.291 19.88 124.265 19.64C124.238 19.3867 124.211 19.0867 124.185 18.74C124.158 18.3933 124.145 18.0867 124.145 17.82V10.02ZM127.649 10.02H134.109V11.68H127.649V10.02ZM129.929 7.38H131.829V20H129.929V7.38ZM138.007 5.9V7.96H135.627V5.9H138.007ZM135.867 10.02H137.767V20H135.867V10.02ZM145.073 20.22C144.099 20.22 143.206 20.0133 142.393 19.6C141.579 19.1867 140.933 18.5933 140.453 17.82C139.973 17.0467 139.733 16.12 139.733 15.04C139.733 13.9467 139.973 13.0133 140.453 12.24C140.933 11.4533 141.579 10.8533 142.393 10.44C143.206 10.0267 144.099 9.82 145.073 9.82C146.046 9.82 146.933 10.0267 147.733 10.44C148.533 10.8533 149.173 11.4533 149.653 12.24C150.133 13.0133 150.373 13.9467 150.373 15.04C150.373 16.12 150.133 17.0467 149.653 17.82C149.173 18.5933 148.533 19.1867 147.733 19.6C146.933 20.0133 146.046 20.22 145.073 20.22ZM145.073 18.56C145.673 18.56 146.226 18.4267 146.733 18.16C147.253 17.88 147.666 17.48 147.973 16.96C148.293 16.4267 148.453 15.7867 148.453 15.04C148.453 14.28 148.293 13.6333 147.973 13.1C147.666 12.5667 147.253 12.16 146.733 11.88C146.226 11.6 145.673 11.46 145.073 11.46C144.473 11.46 143.913 11.6 143.393 11.88C142.873 12.1467 142.453 12.5467 142.133 13.08C141.813 13.6133 141.653 14.2667 141.653 15.04C141.653 15.7867 141.806 16.4267 142.113 16.96C142.433 17.48 142.853 17.88 143.373 18.16C143.893 18.4267 144.459 18.56 145.073 18.56ZM152.161 10.02H154.081V20H152.161V10.02ZM157.881 9.82C158.441 9.82 158.948 9.9 159.401 10.06C159.855 10.22 160.241 10.46 160.561 10.78C160.881 11.0867 161.128 11.4733 161.301 11.94C161.488 12.3933 161.581 12.9133 161.581 13.5V20H159.681V13.92C159.681 13.1333 159.488 12.5467 159.101 12.16C158.728 11.76 158.155 11.56 157.381 11.56C156.781 11.56 156.235 11.7 155.741 11.98C155.248 12.26 154.841 12.6333 154.521 13.1C154.215 13.5533 154.028 14.0667 153.961 14.64L153.941 13.54C154.008 13.0067 154.148 12.5133 154.361 12.06C154.588 11.6067 154.868 11.2133 155.201 10.88C155.548 10.5333 155.948 10.2733 156.401 10.1C156.855 9.91333 157.348 9.82 157.881 9.82Z" fill="#16100D"/>
<path opacity="0.5" d="M82.736 49.94V48.59H88.352V49.94H82.736ZM80.36 53L84.806 41.3H86.318L90.8 53H89.252L85.346 42.416H85.778L81.872 53H80.36ZM98.5201 53V47.348C98.5201 46.88 98.4481 46.496 98.3041 46.196C98.1601 45.884 97.9441 45.65 97.6561 45.494C97.3681 45.338 97.0081 45.26 96.5761 45.26C96.0841 45.26 95.6281 45.386 95.2081 45.638C94.7881 45.89 94.4401 46.238 94.1641 46.682C93.9001 47.114 93.7381 47.618 93.6781 48.194L93.6601 47.15C93.7201 46.646 93.8401 46.19 94.0201 45.782C94.2121 45.374 94.4461 45.026 94.7221 44.738C95.0101 44.438 95.3341 44.21 95.6941 44.054C96.0661 43.898 96.4561 43.82 96.8641 43.82C97.3441 43.82 97.7761 43.892 98.1601 44.036C98.5441 44.18 98.8681 44.39 99.1321 44.666C99.3961 44.942 99.6001 45.278 99.7441 45.674C99.8881 46.058 99.9601 46.496 99.9601 46.988V53H98.5201ZM92.3281 53V40.4H93.7681V53H92.3281ZM102.087 44H103.527V53H102.087V44ZM106.623 43.82C107.103 43.82 107.535 43.892 107.919 44.036C108.303 44.18 108.627 44.39 108.891 44.666C109.155 44.942 109.359 45.278 109.503 45.674C109.647 46.058 109.719 46.496 109.719 46.988V53H108.279V47.348C108.279 46.652 108.117 46.13 107.793 45.782C107.469 45.434 106.983 45.26 106.335 45.26C105.843 45.26 105.387 45.386 104.967 45.638C104.547 45.89 104.199 46.238 103.923 46.682C103.659 47.114 103.497 47.618 103.437 48.194L103.419 47.15C103.479 46.646 103.599 46.19 103.779 45.782C103.971 45.374 104.205 45.026 104.481 44.738C104.769 44.438 105.093 44.21 105.453 44.054C105.825 43.898 106.215 43.82 106.623 43.82ZM112.671 43.82C113.151 43.82 113.583 43.892 113.967 44.036C114.351 44.18 114.675 44.39 114.939 44.666C115.203 44.942 115.407 45.278 115.551 45.674C115.695 46.058 115.767 46.496 115.767 46.988V53H114.327V47.348C114.327 46.652 114.165 46.13 113.841 45.782C113.517 45.434 113.031 45.26 112.383 45.26C111.891 45.26 111.435 45.386 111.015 45.638C110.595 45.89 110.247 46.238 109.971 46.682C109.707 47.114 109.545 47.618 109.485 48.194L109.467 47.15C109.527 46.646 109.647 46.19 109.827 45.782C110.019 45.374 110.253 45.026 110.529 44.738C110.817 44.438 111.141 44.21 111.501 44.054C111.873 43.898 112.263 43.82 112.671 43.82ZM124.253 50.102H125.603C125.507 50.69 125.291 51.218 124.955 51.686C124.631 52.142 124.199 52.508 123.659 52.784C123.131 53.048 122.519 53.18 121.823 53.18C120.983 53.18 120.227 52.982 119.555 52.586C118.883 52.178 118.349 51.626 117.953 50.93C117.569 50.222 117.377 49.418 117.377 48.518C117.377 47.618 117.563 46.814 117.935 46.106C118.319 45.398 118.841 44.84 119.501 44.432C120.161 44.024 120.905 43.82 121.733 43.82C122.609 43.82 123.347 44.018 123.947 44.414C124.559 44.798 125.009 45.368 125.297 46.124C125.597 46.868 125.717 47.786 125.657 48.878H118.817C118.877 49.466 119.039 49.982 119.303 50.426C119.567 50.87 119.915 51.218 120.347 51.47C120.779 51.71 121.271 51.83 121.823 51.83C122.435 51.83 122.951 51.674 123.371 51.362C123.803 51.038 124.097 50.618 124.253 50.102ZM121.787 45.17C121.043 45.17 120.419 45.386 119.915 45.818C119.411 46.25 119.075 46.838 118.907 47.582H124.181C124.133 46.79 123.875 46.19 123.407 45.782C122.951 45.374 122.411 45.17 121.787 45.17ZM130.696 53.18C129.976 53.18 129.316 52.982 128.716 52.586C128.128 52.178 127.66 51.626 127.312 50.93C126.964 50.222 126.79 49.418 126.79 48.518C126.79 47.618 126.958 46.814 127.294 46.106C127.63 45.398 128.092 44.84 128.68 44.432C129.268 44.024 129.94 43.82 130.696 43.82C131.368 43.82 131.914 43.946 132.334 44.198C132.766 44.438 133.096 44.774 133.324 45.206C133.552 45.638 133.708 46.136 133.792 46.7C133.888 47.264 133.936 47.87 133.936 48.518C133.936 48.974 133.888 49.472 133.792 50.012C133.696 50.54 133.528 51.05 133.288 51.542C133.06 52.022 132.736 52.418 132.316 52.73C131.896 53.03 131.356 53.18 130.696 53.18ZM131.056 51.812C131.668 51.812 132.172 51.662 132.568 51.362C132.976 51.062 133.276 50.666 133.468 50.174C133.66 49.67 133.756 49.118 133.756 48.518C133.756 47.858 133.654 47.282 133.45 46.79C133.258 46.286 132.958 45.896 132.55 45.62C132.154 45.332 131.656 45.188 131.056 45.188C130.156 45.188 129.46 45.506 128.968 46.142C128.476 46.766 128.23 47.558 128.23 48.518C128.23 49.154 128.35 49.724 128.59 50.228C128.842 50.72 129.178 51.11 129.598 51.398C130.03 51.674 130.516 51.812 131.056 51.812ZM133.756 40.4H135.196V53H133.882C133.858 52.736 133.828 52.424 133.792 52.064C133.768 51.704 133.756 51.416 133.756 51.2V40.4ZM140.988 53.18C140.28 53.18 139.626 52.982 139.026 52.586C138.438 52.178 137.964 51.626 137.604 50.93C137.256 50.222 137.082 49.418 137.082 48.518C137.082 47.618 137.262 46.814 137.622 46.106C137.982 45.398 138.468 44.84 139.08 44.432C139.704 44.024 140.4 43.82 141.168 43.82C142.008 43.82 142.644 44.036 143.076 44.468C143.52 44.888 143.82 45.452 143.976 46.16C144.144 46.868 144.228 47.654 144.228 48.518C144.228 48.974 144.18 49.472 144.084 50.012C143.988 50.54 143.82 51.05 143.58 51.542C143.352 52.022 143.028 52.418 142.608 52.73C142.188 53.03 141.648 53.18 140.988 53.18ZM141.348 51.812C141.96 51.812 142.464 51.662 142.86 51.362C143.268 51.062 143.568 50.666 143.76 50.174C143.952 49.67 144.048 49.118 144.048 48.518C144.048 47.858 143.946 47.282 143.742 46.79C143.55 46.286 143.25 45.896 142.842 45.62C142.446 45.332 141.948 45.188 141.348 45.188C140.448 45.188 139.752 45.506 139.26 46.142C138.768 46.766 138.522 47.558 138.522 48.518C138.522 49.154 138.642 49.724 138.882 50.228C139.134 50.72 139.47 51.11 139.89 51.398C140.322 51.674 140.808 51.812 141.348 51.812ZM144.048 44H145.488V53H144.174C144.174 53 144.162 52.892 144.138 52.676C144.126 52.46 144.108 52.208 144.084 51.92C144.06 51.632 144.048 51.392 144.048 51.2V44ZM152.208 53.18C151.548 53.18 151.008 53.03 150.588 52.73C150.168 52.418 149.838 52.022 149.598 51.542C149.37 51.05 149.208 50.54 149.112 50.012C149.016 49.472 148.968 48.974 148.968 48.518C148.968 47.87 149.01 47.264 149.094 46.7C149.19 46.136 149.352 45.638 149.58 45.206C149.808 44.774 150.132 44.438 150.552 44.198C150.984 43.946 151.536 43.82 152.208 43.82C152.964 43.82 153.636 44.024 154.224 44.432C154.812 44.84 155.274 45.398 155.61 46.106C155.946 46.814 156.114 47.618 156.114 48.518C156.114 49.418 155.94 50.222 155.592 50.93C155.244 51.626 154.776 52.178 154.188 52.586C153.6 52.982 152.94 53.18 152.208 53.18ZM151.848 51.812C152.4 51.812 152.886 51.674 153.306 51.398C153.726 51.11 154.056 50.72 154.296 50.228C154.548 49.724 154.674 49.154 154.674 48.518C154.674 47.558 154.428 46.766 153.936 46.142C153.444 45.506 152.748 45.188 151.848 45.188C151.248 45.188 150.744 45.332 150.336 45.62C149.94 45.896 149.64 46.286 149.436 46.79C149.244 47.282 149.148 47.858 149.148 48.518C149.148 49.118 149.244 49.67 149.436 50.174C149.64 50.666 149.94 51.062 150.336 51.362C150.732 51.662 151.236 51.812 151.848 51.812ZM149.148 40.4V51.2C149.148 51.416 149.13 51.704 149.094 52.064C149.07 52.424 149.046 52.736 149.022 53H147.708V40.4H149.148ZM161.132 53.18C160.424 53.18 159.77 52.982 159.17 52.586C158.582 52.178 158.108 51.626 157.748 50.93C157.4 50.222 157.226 49.418 157.226 48.518C157.226 47.618 157.406 46.814 157.766 46.106C158.126 45.398 158.612 44.84 159.224 44.432C159.848 44.024 160.544 43.82 161.312 43.82C162.152 43.82 162.788 44.036 163.22 44.468C163.664 44.888 163.964 45.452 164.12 46.16C164.288 46.868 164.372 47.654 164.372 48.518C164.372 48.974 164.324 49.472 164.228 50.012C164.132 50.54 163.964 51.05 163.724 51.542C163.496 52.022 163.172 52.418 162.752 52.73C162.332 53.03 161.792 53.18 161.132 53.18ZM161.492 51.812C162.104 51.812 162.608 51.662 163.004 51.362C163.412 51.062 163.712 50.666 163.904 50.174C164.096 49.67 164.192 49.118 164.192 48.518C164.192 47.858 164.09 47.282 163.886 46.79C163.694 46.286 163.394 45.896 162.986 45.62C162.59 45.332 162.092 45.188 161.492 45.188C160.592 45.188 159.896 45.506 159.404 46.142C158.912 46.766 158.666 47.558 158.666 48.518C158.666 49.154 158.786 49.724 159.026 50.228C159.278 50.72 159.614 51.11 160.034 51.398C160.466 51.674 160.952 51.812 161.492 51.812ZM164.192 44H165.632V53H164.318C164.318 53 164.306 52.892 164.282 52.676C164.27 52.46 164.252 52.208 164.228 51.92C164.204 51.632 164.192 51.392 164.192 51.2V44ZM171.16 53.18C170.44 53.18 169.78 52.982 169.18 52.586C168.592 52.178 168.124 51.626 167.776 50.93C167.428 50.222 167.254 49.418 167.254 48.518C167.254 47.618 167.422 46.814 167.758 46.106C168.094 45.398 168.556 44.84 169.144 44.432C169.732 44.024 170.404 43.82 171.16 43.82C171.832 43.82 172.378 43.946 172.798 44.198C173.23 44.438 173.56 44.774 173.788 45.206C174.016 45.638 174.172 46.136 174.256 46.7C174.352 47.264 174.4 47.87 174.4 48.518C174.4 48.974 174.352 49.472 174.256 50.012C174.16 50.54 173.992 51.05 173.752 51.542C173.524 52.022 173.2 52.418 172.78 52.73C172.36 53.03 171.82 53.18 171.16 53.18ZM171.52 51.812C172.132 51.812 172.636 51.662 173.032 51.362C173.44 51.062 173.74 50.666 173.932 50.174C174.124 49.67 174.22 49.118 174.22 48.518C174.22 47.858 174.118 47.282 173.914 46.79C173.722 46.286 173.422 45.896 173.014 45.62C172.618 45.332 172.12 45.188 171.52 45.188C170.62 45.188 169.924 45.506 169.432 46.142C168.94 46.766 168.694 47.558 168.694 48.518C168.694 49.154 168.814 49.724 169.054 50.228C169.306 50.72 169.642 51.11 170.062 51.398C170.494 51.674 170.98 51.812 171.52 51.812ZM174.22 40.4H175.66V53H174.346C174.322 52.736 174.292 52.424 174.256 52.064C174.232 51.704 174.22 51.416 174.22 51.2V40.4ZM178.211 55.556L177.833 55.16C178.025 54.824 178.193 54.488 178.337 54.152C178.481 53.828 178.559 53.51 178.571 53.198L177.689 53V51.254H179.633V52.514C179.633 53.246 179.483 53.846 179.183 54.314C178.895 54.782 178.571 55.196 178.211 55.556ZM185.587 41.3H187.027V53H185.587V41.3ZM189.782 44H191.222V53H189.782V44ZM194.318 43.82C194.798 43.82 195.23 43.892 195.614 44.036C195.998 44.18 196.322 44.39 196.586 44.666C196.85 44.942 197.054 45.278 197.198 45.674C197.342 46.058 197.414 46.496 197.414 46.988V53H195.974V47.348C195.974 46.652 195.812 46.13 195.488 45.782C195.164 45.434 194.678 45.26 194.03 45.26C193.538 45.26 193.082 45.386 192.662 45.638C192.242 45.89 191.894 46.238 191.618 46.682C191.354 47.114 191.192 47.618 191.132 48.194L191.114 47.15C191.174 46.646 191.294 46.19 191.474 45.782C191.666 45.374 191.9 45.026 192.176 44.738C192.464 44.438 192.788 44.21 193.148 44.054C193.52 43.898 193.91 43.82 194.318 43.82ZM202.931 53.18C202.211 53.18 201.551 52.982 200.951 52.586C200.363 52.178 199.895 51.626 199.547 50.93C199.199 50.222 199.025 49.418 199.025 48.518C199.025 47.618 199.193 46.814 199.529 46.106C199.865 45.398 200.327 44.84 200.915 44.432C201.503 44.024 202.175 43.82 202.931 43.82C203.603 43.82 204.149 43.946 204.569 44.198C205.001 44.438 205.331 44.774 205.559 45.206C205.787 45.638 205.943 46.136 206.027 46.7C206.123 47.264 206.171 47.87 206.171 48.518C206.171 48.974 206.123 49.472 206.027 50.012C205.931 50.54 205.763 51.05 205.523 51.542C205.295 52.022 204.971 52.418 204.551 52.73C204.131 53.03 203.591 53.18 202.931 53.18ZM203.291 51.812C203.903 51.812 204.407 51.662 204.803 51.362C205.211 51.062 205.511 50.666 205.703 50.174C205.895 49.67 205.991 49.118 205.991 48.518C205.991 47.858 205.889 47.282 205.685 46.79C205.493 46.286 205.193 45.896 204.785 45.62C204.389 45.332 203.891 45.188 203.291 45.188C202.391 45.188 201.695 45.506 201.203 46.142C200.711 46.766 200.465 47.558 200.465 48.518C200.465 49.154 200.585 49.724 200.825 50.228C201.077 50.72 201.413 51.11 201.833 51.398C202.265 51.674 202.751 51.812 203.291 51.812ZM205.991 40.4H207.431V53H206.117C206.093 52.736 206.063 52.424 206.027 52.064C206.003 51.704 205.991 51.416 205.991 51.2V40.4ZM211.602 40.4V42.146H209.73V40.4H211.602ZM209.946 44H211.386V53H209.946V44ZM217.028 53.18C216.32 53.18 215.666 52.982 215.066 52.586C214.478 52.178 214.004 51.626 213.644 50.93C213.296 50.222 213.122 49.418 213.122 48.518C213.122 47.618 213.302 46.814 213.662 46.106C214.022 45.398 214.508 44.84 215.12 44.432C215.744 44.024 216.44 43.82 217.208 43.82C218.048 43.82 218.684 44.036 219.116 44.468C219.56 44.888 219.86 45.452 220.016 46.16C220.184 46.868 220.268 47.654 220.268 48.518C220.268 48.974 220.22 49.472 220.124 50.012C220.028 50.54 219.86 51.05 219.62 51.542C219.392 52.022 219.068 52.418 218.648 52.73C218.228 53.03 217.688 53.18 217.028 53.18ZM217.388 51.812C218 51.812 218.504 51.662 218.9 51.362C219.308 51.062 219.608 50.666 219.8 50.174C219.992 49.67 220.088 49.118 220.088 48.518C220.088 47.858 219.986 47.282 219.782 46.79C219.59 46.286 219.29 45.896 218.882 45.62C218.486 45.332 217.988 45.188 217.388 45.188C216.488 45.188 215.792 45.506 215.3 46.142C214.808 46.766 214.562 47.558 214.562 48.518C214.562 49.154 214.682 49.724 214.922 50.228C215.174 50.72 215.51 51.11 215.93 51.398C216.362 51.674 216.848 51.812 217.388 51.812ZM220.088 44H221.528V53H220.214C220.214 53 220.202 52.892 220.178 52.676C220.166 52.46 220.148 52.208 220.124 51.92C220.1 51.632 220.088 51.392 220.088 51.2V44Z" fill="#16100D"/>
<path opacity="0.4" d="M40.7754 25.5625C39.4629 19.7875 34.4254 17.1875 30.0004 17.1875C30.0004 17.1875 30.0004 17.1875 29.9879 17.1875C25.5754 17.1875 20.5254 19.775 19.2129 25.55C17.7504 32 21.7004 37.4625 25.2754 40.9C26.6004 42.175 28.3004 42.8125 30.0004 42.8125C31.7004 42.8125 33.4004 42.175 34.7129 40.9C38.2879 37.4625 42.2379 32.0125 40.7754 25.5625Z" fill="#025595"/>
<path d="M30 31.825C32.1746 31.825 33.9375 30.0622 33.9375 27.8875C33.9375 25.7129 32.1746 23.95 30 23.95C27.8254 23.95 26.0625 25.7129 26.0625 27.8875C26.0625 30.0622 27.8254 31.825 30 31.825Z" fill="#025595"/>
</svg>
